<svg xmlns="http://www.w3.org/2000/svg" xmlns:xlink="http://www.w3.org/1999/xlink" width="158" height="79" viewBox="0 0 158 79"><defs><clipPath id="a"><rect width="158" height="79" fill="none"/></clipPath><clipPath id="b"><path d="M26.193,23.853a8.332,8.332,0,0,1,8.053,8.275,7.78,7.78,0,0,1-8.053,7.818,8.333,8.333,0,0,1-8.054-8.275A7.779,7.779,0,0,1,26.193,23.853ZM51.778,0c3.687,28.607-7.957,43.011-7.957,43.011C53.817,49.952,41.827,76.285,31.2,79v-.168c1.115-5.53,1.968-15.022-3.1-21.921C20.535,46.613,1.9,50.349.158,39.055S11.711,17.922,11.711,17.922C-6.816,43.437,28.095,42.188,28.095,42.188,47.459,38.741,51.778,0,51.778,0Z" fill="none" clip-rule="evenodd"/></clipPath><clipPath id="c"><rect width="469" height="469" transform="translate(-165 -33.5)" fill="none"/></clipPath><clipPath id="d"><path d="M69.684,9.575a15.973,15.973,0,0,1-7.018,13.969,9.771,9.771,0,0,1-.539-8.055A9.363,9.363,0,0,1,69.684,9.575ZM71.491,9.5a9.826,9.826,0,0,1,3.229.689,10.075,10.075,0,0,1,4.966,4.447A20.939,20.939,0,0,1,65.2,26.659a10.125,10.125,0,0,1-1.484-1.506A17.813,17.813,0,0,0,71.491,9.5Zm9.163,7.463a9.662,9.662,0,0,1-.28,5.993,9.516,9.516,0,0,1-12.593,5.3c-.142-.058-.26-.146-.4-.21A22.378,22.378,0,0,0,80.654,16.963Z" fill="none" clip-rule="evenodd"/></clipPath><clipPath id="f"><path d="M155.972,39.788v16.8h-3.888V49.7h-7.632v6.888h-3.888v-16.8h3.888v6.624h7.632V39.788Zm-25.2,17.088a13.746,13.746,0,0,1-3.852-.54,9.034,9.034,0,0,1-2.988-1.4L125.252,52a8.957,8.957,0,0,0,2.568,1.272,9.646,9.646,0,0,0,2.976.48,4.754,4.754,0,0,0,2.448-.492,1.486,1.486,0,0,0,.792-1.308,1.25,1.25,0,0,0-.468-1,3.548,3.548,0,0,0-1.2-.636q-.732-.24-1.98-.528l-.535-.131a25.134,25.134,0,0,1-2.609-.782,5.108,5.108,0,0,1-2.1-1.464,3.954,3.954,0,0,1-.876-2.688,4.676,4.676,0,0,1,.792-2.652,5.328,5.328,0,0,1,2.388-1.884,9.744,9.744,0,0,1,3.9-.7,12.914,12.914,0,0,1,3.144.384,9.288,9.288,0,0,1,2.688,1.1l-1.2,2.952a9.368,9.368,0,0,0-4.656-1.32,4.366,4.366,0,0,0-2.412.528,1.612,1.612,0,0,0-.78,1.392,1.361,1.361,0,0,0,.9,1.284,14.131,14.131,0,0,0,2.748.828,27.37,27.37,0,0,1,3.144.912,5.206,5.206,0,0,1,2.1,1.44,3.861,3.861,0,0,1,.876,2.664,4.587,4.587,0,0,1-.8,2.628,5.4,5.4,0,0,1-2.412,1.884A9.833,9.833,0,0,1,130.772,56.876Zm-14.064-6.84L114.044,43.6l-2.664,6.432Zm1.224,2.952h-7.8l-1.488,3.6H104.66l7.488-16.8h3.84l7.512,16.8h-4.08Zm-25.56-13.2H96.26V53.42h8.424v3.168H92.372Zm-10.512,9a4.083,4.083,0,0,0,2.664-.756,2.633,2.633,0,0,0,.912-2.148,2.661,2.661,0,0,0-.912-2.172,4.083,4.083,0,0,0-2.664-.756H78.692v5.832Zm.216-9a9.333,9.333,0,0,1,3.876.744,5.758,5.758,0,0,1,2.532,2.112,6.333,6.333,0,0,1,0,6.468,5.656,5.656,0,0,1-2.532,2.112,9.466,9.466,0,0,1-3.876.732H78.692v4.632H74.8v-16.8ZM65.012,56.876a13.746,13.746,0,0,1-3.852-.54,9.034,9.034,0,0,1-2.988-1.4L59.492,52a8.957,8.957,0,0,0,2.568,1.272,9.646,9.646,0,0,0,2.976.48,4.754,4.754,0,0,0,2.448-.492,1.486,1.486,0,0,0,.792-1.308,1.25,1.25,0,0,0-.468-1,3.548,3.548,0,0,0-1.2-.636q-.732-.24-1.98-.528l-.535-.131a25.134,25.134,0,0,1-2.609-.782,5.108,5.108,0,0,1-2.1-1.464,3.954,3.954,0,0,1-.876-2.688A4.676,4.676,0,0,1,59.3,42.08,5.328,5.328,0,0,1,61.688,40.2a9.744,9.744,0,0,1,3.9-.7,12.914,12.914,0,0,1,3.144.384,9.288,9.288,0,0,1,2.688,1.1l-1.2,2.952a9.368,9.368,0,0,0-4.656-1.32,4.366,4.366,0,0,0-2.412.528,1.612,1.612,0,0,0-.78,1.392,1.361,1.361,0,0,0,.9,1.284,14.131,14.131,0,0,0,2.748.828,27.371,27.371,0,0,1,3.144.912,5.206,5.206,0,0,1,2.1,1.44,3.861,3.861,0,0,1,.876,2.664,4.587,4.587,0,0,1-.8,2.628,5.4,5.4,0,0,1-2.412,1.884A9.833,9.833,0,0,1,65.012,56.876Z" fill="none"/></clipPath><clipPath id="h"><path d="M150.5,62.5h2.368v8.115H158V72.5h-7.5Zm-8.5,0h2.368v8.115H149.5V72.5H142Zm-5.5,6-1.5-4-1.5,4Zm1.1,1.857H132.84l-.908,2.143H129.5l4.57-10h2.344L141,72.5h-2.49Zm-12.927.143a2.5,2.5,0,0,0,1.366-.3,1.047,1.047,0,0,0,.46-.939Q126.5,68,124.674,68H122v2.5ZM122,64v2.5h2.275a2.177,2.177,0,0,0,1.286-.318,1.088,1.088,0,0,0,.438-.939,1.068,1.068,0,0,0-.438-.932A2.218,2.218,0,0,0,124.275,64Zm5.106,3.3a2.739,2.739,0,0,1,1.391.907,2.443,2.443,0,0,1,.5,1.564,2.288,2.288,0,0,1-1.058,2.021,5.562,5.562,0,0,1-3.086.707H119.5v-10h5.061a5.092,5.092,0,0,1,2.908.7,2.194,2.194,0,0,1,1.013,1.9,2.373,2.373,0,0,1-.362,1.3A2.506,2.506,0,0,1,127.106,67.3Zm-12.464,1.657V72.5h-2.3V68.928L108.5,62.5h2.439l2.653,4.443,2.652-4.443H118.5ZM108,70.643V72.5h-8v-10h7.808v1.857h-5.431v2.172h4.8v1.8h-4.8v2.314ZM91,62.5h2.368v8.115H98.5V72.5H91Zm-8.5,0h2.368v8.115H90V72.5H82.5Zm-7.25,8a3.356,3.356,0,0,0,1.662-.413,3,3,0,0,0,1.165-1.154,3.56,3.56,0,0,0,0-3.366,3,3,0,0,0-1.165-1.154,3.547,3.547,0,0,0-3.324,0,3,3,0,0,0-1.165,1.154,3.56,3.56,0,0,0,0,3.366,3,3,0,0,0,1.165,1.154A3.356,3.356,0,0,0,75.25,70.5Zm-.25,2a5.822,5.822,0,0,1-2.822-.682,5.033,5.033,0,0,1-1.967-1.878,5.446,5.446,0,0,1,0-5.381,5.033,5.033,0,0,1,1.967-1.878,6.168,6.168,0,0,1,5.636,0,5.2,5.2,0,0,1,0,9.137A5.778,5.778,0,0,1,75,72.5Zm-6-10-4.357,10h-2.3L58,62.5h2.516l3.063,7.143L66.685,62.5Z" fill="none"/></clipPath></defs><g clip-path="url(#a)"><g clip-path="url(#b)"><g clip-path="url(#c)"><rect width="57.5" height="84" transform="translate(-2.5 -2.5)" fill="#142978"/></g></g><g clip-path="url(#d)"><g clip-path="url(#c)"><rect width="24.5" height="24.5" transform="translate(59 7)" fill="#ff573b"/></g></g><g clip-path="url(#f)"><g clip-path="url(#c)"><rect width="102.8" height="22.376" transform="translate(55.672 37)" fill="#142978"/></g></g><g clip-path="url(#h)"><g clip-path="url(#c)"><rect width="105" height="15.5" transform="translate(55.5 59.5)" fill="#142978"/></g></g></g></svg>