<svg xmlns="http://www.w3.org/2000/svg" xmlns:xlink="http://www.w3.org/1999/xlink" width="116.085" height="35.482" viewBox="0 0 116.085 35.482">
  <defs>
    <clipPath id="clip-path">
      <path id="Path_194" data-name="Path 194" d="M148.641-555.275c4.858,1.41,15.633-2.9,21.227-8.491,6.876-6.876,10.9-19.38,6.547-23.729q3.034,4.162-1.3,12.321a33.381,33.381,0,0,1-8.068,9.753c-7.458,6.071-12.645,6.584-15.5,4.589q-2.857-1.995,1.02-15.035a28.948,28.948,0,0,0-4.271,6.187C145.452-563.6,145.145-556.657,148.641-555.275Z" transform="translate(-146.091 587.495)" fill="#fff" clip-rule="evenodd"/>
    </clipPath>
    <clipPath id="clip-path-2">
      <path id="Path_193" data-name="Path 193" d="M-1242-1281.615h150.971V-1422H-1242Z" transform="translate(1242 1422)" fill="#fff"/>
    </clipPath>
    <clipPath id="clip-path-3">
      <path id="Path_197" data-name="Path 197" d="M109.572-597.742a6.379,6.379,0,0,1-1.3-3.744,22.122,22.122,0,0,1,.539-5.7,27.52,27.52,0,0,1,8-13.822c9.119-8.559,16.533-11.277,22.116-8.908a3.151,3.151,0,0,1,1.288.945,11.95,11.95,0,0,1,1.009,1.645q-.3-.641-.407-.932a7.042,7.042,0,0,0-.4-.809,4.485,4.485,0,0,0-.765-1.055c-4.349-4.349-17.593,0-24.507,6.913-5.528,5.528-9.509,14.641-8.175,21.033A7.492,7.492,0,0,0,109.572-597.742Z" transform="translate(-106.706 631.87)" fill="#fff" clip-rule="evenodd"/>
    </clipPath>
    <clipPath id="clip-path-5">
      <path id="Path_200" data-name="Path 200" d="M277-462.391a14.132,14.132,0,0,1,4.841-8.626A14.949,14.949,0,0,1,289.879-475a26.1,26.1,0,0,0-7.333,5.171A23.446,23.446,0,0,0,277-462.391Z" transform="translate(-277 475)" fill="#fff" clip-rule="evenodd"/>
    </clipPath>
  </defs>
  <g id="Group_219" data-name="Group 219" transform="translate(-322 -18)">
    <g id="Group_1" data-name="Group 1" transform="translate(284.19 -31.76)">
      <path id="Path_2" data-name="Path 2" d="M6.077-2.1A5.8,5.8,0,0,1,3.35-2.714,4.409,4.409,0,0,1,1.532-4.438,5.007,5.007,0,0,1,.89-6.991v-.775a.309.309,0,0,1,.094-.227.309.309,0,0,1,.227-.094H4.285a.309.309,0,0,1,.227.094.309.309,0,0,1,.094.227v.588a2.006,2.006,0,0,0,.428,1.337A1.341,1.341,0,0,0,6.1-5.334a1.371,1.371,0,0,0,1.069-.481A1.821,1.821,0,0,0,7.6-7.071a1.951,1.951,0,0,0-.535-1.377,16,16,0,0,0-2.085-1.7,25.666,25.666,0,0,1-2.165-1.711A6.766,6.766,0,0,1,1.4-13.7a5.29,5.29,0,0,1-.588-2.54,4.812,4.812,0,0,1,1.417-3.636A5.171,5.171,0,0,1,5.97-21.24a5.14,5.14,0,0,1,3.783,1.417,5,5,0,0,1,1.43,3.716v.642a.309.309,0,0,1-.094.227.309.309,0,0,1-.227.094H7.787a.309.309,0,0,1-.227-.094.309.309,0,0,1-.094-.227v-.722a1.994,1.994,0,0,0-.414-1.323,1.345,1.345,0,0,0-1.083-.495,1.308,1.308,0,0,0-1.043.468,1.929,1.929,0,0,0-.4,1.3,2.16,2.16,0,0,0,.508,1.417,12.109,12.109,0,0,0,2.005,1.711q1.657,1.23,2.5,1.992a5.825,5.825,0,0,1,1.31,1.684,4.824,4.824,0,0,1,.468,2.206A4.954,4.954,0,0,1,9.873-3.489,5.243,5.243,0,0,1,6.077-2.1ZM18.748-21.053a4.823,4.823,0,0,1,2.62.722,4.786,4.786,0,0,1,1.778,2.018,6.691,6.691,0,0,1,.628,2.954,5.758,5.758,0,0,1-1.337,3.983,4.471,4.471,0,0,1-3.5,1.5H16.93a.118.118,0,0,0-.134.134v7.111a.309.309,0,0,1-.094.227.309.309,0,0,1-.227.094H13.348a.309.309,0,0,1-.227-.094.309.309,0,0,1-.094-.227v-18.1a.309.309,0,0,1,.094-.227.309.309,0,0,1,.227-.094Zm-.642,8.234a1.673,1.673,0,0,0,1.377-.655,2.824,2.824,0,0,0,.521-1.8,2.929,2.929,0,0,0-.521-1.845,1.661,1.661,0,0,0-1.377-.668H16.93a.118.118,0,0,0-.134.134v4.705a.118.118,0,0,0,.134.134Zm7.7,10.506a.309.309,0,0,1-.227-.094.309.309,0,0,1-.094-.227V-20.705a.309.309,0,0,1,.094-.227.309.309,0,0,1,.227-.094h3.128a.309.309,0,0,1,.227.094.309.309,0,0,1,.094.227V-5.681a.118.118,0,0,0,.134.134H35a.309.309,0,0,1,.227.094.309.309,0,0,1,.094.227v2.593a.309.309,0,0,1-.094.227A.309.309,0,0,1,35-2.313Zm19.382,0a.3.3,0,0,1-.348-.294l-.428-2.566q0-.134-.16-.134h-3.4q-.16,0-.16.134l-.428,2.566a.3.3,0,0,1-.348.294H36.793q-.348,0-.267-.348l3.93-18.072a.32.32,0,0,1,.348-.294h3.609a.32.32,0,0,1,.348.294l3.9,18.072.027.107q0,.241-.294.241ZM41.231-8.354q0,.134.107.134h2.406q.134,0,.107-.134l-1.256-7.3q-.027-.08-.08-.08t-.08.08ZM54.357-2.1a5.8,5.8,0,0,1-2.727-.615,4.409,4.409,0,0,1-1.818-1.724,5.007,5.007,0,0,1-.642-2.553v-.775a.309.309,0,0,1,.094-.227.309.309,0,0,1,.227-.094h3.074a.309.309,0,0,1,.227.094.309.309,0,0,1,.094.227v.588a2.006,2.006,0,0,0,.428,1.337,1.341,1.341,0,0,0,1.069.508,1.371,1.371,0,0,0,1.069-.481,1.821,1.821,0,0,0,.428-1.256,1.951,1.951,0,0,0-.535-1.377,16,16,0,0,0-2.085-1.7A25.666,25.666,0,0,1,51.1-11.857,6.766,6.766,0,0,1,49.679-13.7a5.29,5.29,0,0,1-.588-2.54,4.812,4.812,0,0,1,1.417-3.636A5.171,5.171,0,0,1,54.25-21.24a5.14,5.14,0,0,1,3.783,1.417,5,5,0,0,1,1.43,3.716v.642a.309.309,0,0,1-.094.227.309.309,0,0,1-.227.094H56.068a.309.309,0,0,1-.227-.094.309.309,0,0,1-.094-.227v-.722a1.994,1.994,0,0,0-.414-1.323,1.345,1.345,0,0,0-1.083-.495,1.308,1.308,0,0,0-1.043.468,1.929,1.929,0,0,0-.4,1.3,2.16,2.16,0,0,0,.508,1.417,12.11,12.11,0,0,0,2.005,1.711q1.657,1.23,2.5,1.992a5.825,5.825,0,0,1,1.31,1.684A4.824,4.824,0,0,1,59.6-7.232a4.954,4.954,0,0,1-1.444,3.743A5.243,5.243,0,0,1,54.357-2.1ZM68.125-20.705a.309.309,0,0,1,.094-.227.309.309,0,0,1,.227-.094h3.128a.309.309,0,0,1,.227.094.309.309,0,0,1,.094.227V-2.633a.309.309,0,0,1-.094.227.309.309,0,0,1-.227.094H68.446a.309.309,0,0,1-.227-.094.309.309,0,0,1-.094-.227v-7.3a.118.118,0,0,0-.134-.134H65.318a.118.118,0,0,0-.134.134v7.3a.309.309,0,0,1-.094.227.309.309,0,0,1-.227.094H61.736a.309.309,0,0,1-.227-.094.309.309,0,0,1-.094-.227V-20.705a.309.309,0,0,1,.094-.227.309.309,0,0,1,.227-.094h3.128a.309.309,0,0,1,.227.094.309.309,0,0,1,.094.227v7.272a.118.118,0,0,0,.134.134h2.673a.118.118,0,0,0,.134-.134Z" transform="translate(82 74)" fill="#fff"/>
      <path id="Path_3" data-name="Path 3" d="M4.972-.507,3.718-2.318H2.335V-.507H.83v-6.5H3.644a3.611,3.611,0,0,1,1.5.288,2.228,2.228,0,0,1,.98.817A2.251,2.251,0,0,1,6.467-4.65,2.207,2.207,0,0,1,6.119-3.4a2.207,2.207,0,0,1-.989.8L6.588-.507ZM4.944-4.65a1.03,1.03,0,0,0-.353-.84A1.58,1.58,0,0,0,3.56-5.783H2.335v2.266H3.56a1.563,1.563,0,0,0,1.031-.3A1.033,1.033,0,0,0,4.944-4.65ZM19.832-.4a2.942,2.942,0,0,1-2.169-.771,2.968,2.968,0,0,1-.775-2.2V-7.009h1.5v3.585q0,1.746,1.449,1.746A1.358,1.358,0,0,0,20.918-2.1a1.97,1.97,0,0,0,.371-1.323V-7.009h1.486v3.641A2.968,2.968,0,0,1,22-1.167,2.942,2.942,0,0,1,19.832-.4ZM37.942-3.86h1.375v2.638a3.927,3.927,0,0,1-1.226.613,4.759,4.759,0,0,1-1.4.214,3.8,3.8,0,0,1-1.82-.432,3.215,3.215,0,0,1-1.268-1.2,3.3,3.3,0,0,1-.46-1.732A3.3,3.3,0,0,1,33.6-5.49a3.2,3.2,0,0,1,1.277-1.2,3.875,3.875,0,0,1,1.839-.432,4.024,4.024,0,0,1,1.551.288A3.073,3.073,0,0,1,39.437-6l-.966.892a2.234,2.234,0,0,0-1.681-.734,2.294,2.294,0,0,0-1.105.26,1.866,1.866,0,0,0-.752.734,2.16,2.16,0,0,0-.269,1.087,2.141,2.141,0,0,0,.269,1.077,1.905,1.905,0,0,0,.748.738,2.216,2.216,0,0,0,1.091.265,2.439,2.439,0,0,0,1.17-.279Zm16.829-.028a1.714,1.714,0,0,1,.873.59,1.626,1.626,0,0,1,.316,1.017A1.5,1.5,0,0,1,55.3-.967a3.4,3.4,0,0,1-1.936.46H50v-6.5h3.176A3.109,3.109,0,0,1,55-6.553a1.44,1.44,0,0,1,.636,1.235,1.585,1.585,0,0,1-.228.845A1.594,1.594,0,0,1,54.771-3.888ZM51.492-5.876v1.532h1.5a1.51,1.51,0,0,0,.845-.2.651.651,0,0,0,.288-.576.639.639,0,0,0-.288-.571,1.539,1.539,0,0,0-.845-.19ZM53.248-1.64a1.667,1.667,0,0,0,.9-.2.668.668,0,0,0,.3-.6q0-.808-1.2-.808H51.492V-1.64ZM69.37-2.811v2.3h-1.5V-2.829L65.349-7.009h1.6L68.683-4.12,70.42-7.009H71.9Z" transform="translate(81.998 83.156)" fill="#fff"/>
    </g>
    <g id="Group_233" data-name="Group 233" transform="translate(215.293 649.87)">
      <g id="Group_228" data-name="Group 228" transform="translate(109.362 -628.878)" clip-path="url(#clip-path)">
        <g id="Group_227" data-name="Group 227" transform="translate(-93.596 -56.269)" clip-path="url(#clip-path-2)">
          <path id="Path_192" data-name="Path 192" d="M81.18-685.168l15.177,15.177L65.7-639.333,50.521-654.51Z" transform="translate(36.631 734.851)" fill="#fff"/>
        </g>
      </g>
      <g id="Group_230" data-name="Group 230" transform="translate(106.706 -631.87)" clip-path="url(#clip-path-3)">
        <g id="Group_229" data-name="Group 229" transform="translate(-90.941 -53.277)" clip-path="url(#clip-path-2)">
          <path id="Path_195" data-name="Path 195" d="M25.5-743.562l11.457,11.457L5.192-700.344-6.265-711.8Z" transform="translate(89.588 789.308)" fill="#fff"/>
        </g>
      </g>
      <g id="Group_232" data-name="Group 232" transform="translate(118.189 -621.292)" clip-path="url(#clip-path-5)">
        <g id="Group_231" data-name="Group 231" transform="translate(-102.423 -63.854)" clip-path="url(#clip-path-2)">
          <path id="Path_198" data-name="Path 198" d="M272-480h13.553v13.283H272Z" transform="translate(-169.914 543.517)" fill="#fff"/>
        </g>
      </g>
    </g>
  </g>
</svg>
